<svg width="87" height="24" viewBox="0 0 87 24" fill="none" xmlns="http://www.w3.org/2000/svg">
<g id="fampaylogo">
<path id="fampay" d="M2.03967 18.8719V10.111H0.437072V8.36269H2.03967V7.40113C2.03967 6.23561 2.36343 5.33556 3.01094 4.701C3.65846 4.06643 4.56498 3.74915 5.7305 3.74915C6.14491 3.74915 6.58522 3.80743 7.05143 3.92398L6.99316 5.7694C6.73415 5.7176 6.43306 5.6917 6.08988 5.6917C4.9632 5.6917 4.39986 6.27122 4.39986 7.43027V8.36269H6.53666V10.111H4.39986V18.8719H2.03967ZM14.5399 18.8719C14.4363 18.6711 14.3457 18.3441 14.268 17.8909C13.5169 18.6744 12.5974 19.0661 11.5096 19.0661C10.4541 19.0661 9.59293 18.765 8.92599 18.1628C8.25905 17.5606 7.92558 16.816 7.92558 15.9289C7.92558 14.8087 8.33999 13.9507 9.16881 13.355C10.0041 12.7528 11.1955 12.4517 12.7431 12.4517H14.1903V11.7621C14.1903 11.2182 14.0381 10.7844 13.7338 10.4606C13.4295 10.1304 12.9665 9.96529 12.3449 9.96529C11.8074 9.96529 11.3671 10.1013 11.0239 10.3732C10.6808 10.6387 10.5092 10.9787 10.5092 11.3931H8.14897C8.14897 10.8168 8.33999 10.2793 8.72202 9.78075C9.10406 9.27569 9.62207 8.88071 10.2761 8.5958C10.9365 8.31089 11.6715 8.16844 12.4808 8.16844C13.7111 8.16844 14.6921 8.47925 15.4238 9.10086C16.1555 9.716 16.531 10.5837 16.5505 11.7039V16.4437C16.5505 17.389 16.6832 18.1434 16.9487 18.7067V18.8719H14.5399ZM11.9466 17.1721C12.4129 17.1721 12.8499 17.0588 13.2579 16.8322C13.6723 16.6056 13.9831 16.3012 14.1903 15.9192V13.9378H12.9179C12.0438 13.9378 11.3865 14.09 10.9462 14.3943C10.5059 14.6986 10.2858 15.1292 10.2858 15.6861C10.2858 16.1393 10.4347 16.502 10.7326 16.7739C11.0369 17.0394 11.4416 17.1721 11.9466 17.1721ZM21.2417 8.36269L21.3097 9.46023C22.0479 8.59904 23.058 8.16844 24.3401 8.16844C25.7452 8.16844 26.7067 8.70588 27.2248 9.78075C27.9888 8.70588 29.0637 8.16844 30.4494 8.16844C31.6084 8.16844 32.4696 8.48896 33.033 9.13C33.6028 9.77104 33.8942 10.7164 33.9071 11.9661V18.8719H31.5469V12.0341C31.5469 11.3672 31.4012 10.8783 31.1098 10.5675C30.8185 10.2567 30.3361 10.1013 29.6626 10.1013C29.1252 10.1013 28.6849 10.247 28.3417 10.5383C28.005 10.8232 27.7687 11.1988 27.6327 11.665L27.6424 18.8719H25.2822V11.9564C25.2498 10.7196 24.6185 10.1013 23.3882 10.1013C22.4429 10.1013 21.7727 10.4865 21.3777 11.2571V18.8719H19.0175V8.36269H21.2417ZM45.5332 13.7241C45.5332 15.3494 45.1641 16.6476 44.426 17.6189C43.6878 18.5837 42.6971 19.0661 41.4539 19.0661C40.3013 19.0661 39.3786 18.6873 38.6858 17.9297V22.9123H36.3256V8.36269H38.5012L38.5984 9.43109C39.2912 8.58932 40.2333 8.16844 41.4248 8.16844C42.7068 8.16844 43.7105 8.6476 44.4357 9.60592C45.1674 10.5578 45.5332 11.8819 45.5332 13.5784V13.7241ZM43.1828 13.5201C43.1828 12.4712 42.9723 11.6391 42.5514 11.024C42.137 10.4088 41.5413 10.1013 40.7643 10.1013C39.7995 10.1013 39.1066 10.4995 38.6858 11.2959V15.958C39.1131 16.7739 39.8124 17.1818 40.7837 17.1818C41.5348 17.1818 42.1208 16.8807 42.5417 16.2786C42.9691 15.6699 43.1828 14.7504 43.1828 13.5201ZM53.8182 18.8719C53.7146 18.6711 53.6239 18.3441 53.5462 17.8909C52.7951 18.6744 51.8756 19.0661 50.7878 19.0661C49.7324 19.0661 48.8712 18.765 48.2042 18.1628C47.5373 17.5606 47.2038 16.816 47.2038 15.9289C47.2038 14.8087 47.6182 13.9507 48.447 13.355C49.2823 12.7528 50.4738 12.4517 52.0213 12.4517H53.4685V11.7621C53.4685 11.2182 53.3164 10.7844 53.012 10.4606C52.7077 10.1304 52.2447 9.96529 51.6231 9.96529C51.0857 9.96529 50.6454 10.1013 50.3022 10.3732C49.959 10.6387 49.7874 10.9787 49.7874 11.3931H47.4272C47.4272 10.8168 47.6182 10.2793 48.0003 9.78075C48.3823 9.27569 48.9003 8.88071 49.5543 8.5958C50.2148 8.31089 50.9497 8.16844 51.7591 8.16844C52.9894 8.16844 53.9703 8.47925 54.702 9.10086C55.4337 9.716 55.8093 10.5837 55.8287 11.7039V16.4437C55.8287 17.389 55.9615 18.1434 56.2269 18.7067V18.8719H53.8182ZM51.2249 17.1721C51.6911 17.1721 52.1282 17.0588 52.5361 16.8322C52.9505 16.6056 53.2613 16.3012 53.4685 15.9192V13.9378H52.1962C51.322 13.9378 50.6648 14.09 50.2245 14.3943C49.7842 14.6986 49.564 15.1292 49.564 15.6861C49.564 16.1393 49.7129 16.502 50.0108 16.7739C50.3151 17.0394 50.7198 17.1721 51.2249 17.1721ZM61.8215 15.4918L63.9583 8.36269H66.4739L62.2974 20.4647C61.6563 22.2325 60.5685 23.1163 59.0339 23.1163C58.6907 23.1163 58.3119 23.058 57.8975 22.9415V21.1155L58.3443 21.1446C58.94 21.1446 59.3868 21.0346 59.6847 20.8144C59.989 20.6007 60.2286 20.2381 60.4034 19.7266L60.7434 18.8233L57.0525 8.36269H59.5973L61.8215 15.4918Z" fill="#4C5454"/>
<g id="Group 5">
<path id="Path" d="M78.9184 22.6956C78.9049 22.7093 78.8897 22.7211 78.8731 22.7308C78.8031 22.7705 78.716 22.7646 78.652 22.7157C78.049 22.3338 74.9059 20.158 72.8481 17.6128C72.7325 17.4671 72.6772 17.3992 72.6798 17.3138C72.6446 16.1204 74.7551 14.7661 76.3681 13.8943H76.3832C76.4043 13.8808 76.4308 13.8796 76.4531 13.891C76.4753 13.9023 76.4898 13.9246 76.4913 13.9495C76.4913 15.6279 76.9611 20.2308 78.9309 22.3665C79.0165 22.4615 79.011 22.6074 78.9184 22.6956Z" fill="#FFAD00"/>
<path id="Path-4" d="M77.6093 12.5199L81.9761 10.535C83.0931 10.0975 83.9637 9.19475 84.3605 8.06269L84.9057 6.53257C84.9243 6.47112 84.9063 6.40444 84.8593 6.36068C84.8124 6.31691 84.7446 6.30367 84.6846 6.32654L76.343 9.85915L76.3732 9.72598C76.4159 9.47832 76.567 9.26269 76.7852 9.13805C78.1973 8.26872 83.2575 5.68082 83.2575 5.68082C84.8629 4.93098 86.0683 3.52698 86.5665 1.82661L86.9484 0.517585C86.9707 0.440809 86.9471 0.358059 86.8877 0.304553C86.8283 0.251046 86.7436 0.2362 86.6695 0.266332C86.6695 0.266332 79.054 3.22609 76.6069 4.41451C74.1597 5.60293 71.6522 7.13557 70.7828 11.638C70.4311 13.4621 71.0768 15.0073 72.2903 16.756C72.2828 15.0349 76.632 12.9923 77.6093 12.5199Z" fill="#FFAD00"/>
<path id="Combined_Shape-2" d="M66.8683 4.814C66.1774 4.28385 65.5894 4.23863 65.4864 4.28385C65.4437 4.12305 66.2804 3.72607 66.3834 3.62306C66.7226 3.29895 66.9135 2.8693 67.3105 2.59293C68.1195 2.01756 69.1195 2.19595 69.9587 2.65071C70.3858 2.88689 71.5617 3.65572 71.5793 3.69592C72.2481 4.19578 72.8719 4.75318 73.4436 5.36173C73.4833 5.39691 73.5071 5.44672 73.5095 5.49977C73.5119 5.55281 73.4926 5.60454 73.4561 5.64313C73.3783 5.70343 73.2049 5.84413 72.9034 6.11046C70.926 7.91696 70.3456 10.5049 70.1999 11.437C70.1999 11.4571 70.1723 11.6179 70.1723 11.6179C70.1723 11.6179 69.21 6.46221 66.8683 4.814Z" fill="#FFAD00"/>
</g>
</g>
</svg>
